<mxfile host="app.diagrams.net" modified="2023-05-21T00:44:41.377Z" agent="Mozilla/5.0 (Macintosh; Intel Mac OS X 10_15_7) AppleWebKit/537.36 (KHTML, like Gecko) Chrome/113.0.0.0 Safari/537.36" etag="DOzfkmMeMEIIaSqgVChc" version="21.1.5" type="github">
  <diagram name="Page-1" id="i8SpbR-PMwpCc2tuS4KO">
    <mxGraphModel dx="1194" dy="620" grid="1" gridSize="10" guides="1" tooltips="1" connect="1" arrows="1" fold="1" page="1" pageScale="1" pageWidth="850" pageHeight="1100" math="0" shadow="0">
      <root>
        <mxCell id="0" />
        <mxCell id="1" parent="0" />
        <mxCell id="OYan6TQ8TxEoG0S6EjLs-3" value="" style="edgeStyle=orthogonalEdgeStyle;rounded=0;orthogonalLoop=1;jettySize=auto;html=1;" edge="1" parent="1" source="OYan6TQ8TxEoG0S6EjLs-1" target="OYan6TQ8TxEoG0S6EjLs-2">
          <mxGeometry relative="1" as="geometry" />
        </mxCell>
        <mxCell id="OYan6TQ8TxEoG0S6EjLs-1" value="n" style="shape=parallelogram;html=1;strokeWidth=2;perimeter=parallelogramPerimeter;whiteSpace=wrap;rounded=1;arcSize=12;size=0.23;" vertex="1" parent="1">
          <mxGeometry x="80" y="40" width="100" height="40" as="geometry" />
        </mxCell>
        <mxCell id="OYan6TQ8TxEoG0S6EjLs-16" value="" style="edgeStyle=orthogonalEdgeStyle;rounded=0;orthogonalLoop=1;jettySize=auto;html=1;" edge="1" parent="1" source="OYan6TQ8TxEoG0S6EjLs-2" target="OYan6TQ8TxEoG0S6EjLs-15">
          <mxGeometry relative="1" as="geometry" />
        </mxCell>
        <mxCell id="OYan6TQ8TxEoG0S6EjLs-2" value="i=-1" style="whiteSpace=wrap;html=1;strokeWidth=2;rounded=1;arcSize=12;" vertex="1" parent="1">
          <mxGeometry x="80" y="120" width="100" height="40" as="geometry" />
        </mxCell>
        <mxCell id="OYan6TQ8TxEoG0S6EjLs-7" value="" style="edgeStyle=orthogonalEdgeStyle;rounded=0;orthogonalLoop=1;jettySize=auto;html=1;" edge="1" parent="1" source="OYan6TQ8TxEoG0S6EjLs-4" target="OYan6TQ8TxEoG0S6EjLs-6">
          <mxGeometry relative="1" as="geometry" />
        </mxCell>
        <mxCell id="OYan6TQ8TxEoG0S6EjLs-17" value="" style="edgeStyle=orthogonalEdgeStyle;rounded=0;orthogonalLoop=1;jettySize=auto;html=1;" edge="1" parent="1" source="OYan6TQ8TxEoG0S6EjLs-4" target="OYan6TQ8TxEoG0S6EjLs-15">
          <mxGeometry relative="1" as="geometry" />
        </mxCell>
        <mxCell id="OYan6TQ8TxEoG0S6EjLs-4" value="arr[i]" style="shape=parallelogram;perimeter=parallelogramPerimeter;whiteSpace=wrap;html=1;fixedSize=1;strokeWidth=2;rounded=1;arcSize=12;" vertex="1" parent="1">
          <mxGeometry x="80" y="260" width="100" height="40" as="geometry" />
        </mxCell>
        <mxCell id="OYan6TQ8TxEoG0S6EjLs-18" style="edgeStyle=orthogonalEdgeStyle;rounded=0;orthogonalLoop=1;jettySize=auto;html=1;exitX=1;exitY=0.5;exitDx=0;exitDy=0;" edge="1" parent="1" source="OYan6TQ8TxEoG0S6EjLs-6">
          <mxGeometry relative="1" as="geometry">
            <mxPoint x="130" y="170" as="targetPoint" />
            <Array as="points">
              <mxPoint x="200" y="355" />
              <mxPoint x="200" y="170" />
            </Array>
          </mxGeometry>
        </mxCell>
        <mxCell id="OYan6TQ8TxEoG0S6EjLs-6" value="i&amp;gt;=n" style="rhombus;whiteSpace=wrap;html=1;strokeWidth=2;rounded=1;arcSize=12;" vertex="1" parent="1">
          <mxGeometry x="90" y="330" width="80" height="50" as="geometry" />
        </mxCell>
        <mxCell id="OYan6TQ8TxEoG0S6EjLs-15" value="i++" style="rounded=1;whiteSpace=wrap;html=1;absoluteArcSize=1;arcSize=14;strokeWidth=2;" vertex="1" parent="1">
          <mxGeometry x="80" y="190" width="100" height="30" as="geometry" />
        </mxCell>
      </root>
    </mxGraphModel>
  </diagram>
</mxfile>
